<svg xmlns="http://www.w3.org/2000/svg" viewBox="0 0 100000 69" width="900" height="69" id="logo" >
   <style>
     tspan { white-space:pre }
     .shp0 { fill: #000000 } 
   </style>
   <path id="text" fill-rule="evenodd" class="shp0" d="M80.78 55.01L70.12 55.01L67.88 68L51.54 68L61 14.25L86.8 14.25C96.55 14.25 101.42 18.78 101.42 27.84C101.42 32.14 100.82 36.04 99.62 39.53C98.41 42.97 97.07 45.72 95.58 47.79C94.15 49.8 92.14 51.52 89.56 52.95C87.03 54.32 84.11 55.01 80.78 55.01ZM72.53 41.25L76.31 41.25C78.26 41.25 79.73 41.05 80.7 40.65C81.73 40.19 82.39 39.19 82.68 37.64C83.42 33.4 83.79 31.08 83.79 30.68C83.79 29.59 83.36 28.87 82.5 28.53C81.64 28.18 80.35 28.01 78.63 28.01L74.85 28.01L72.53 41.25ZM49.65 63.87L48.96 67.74L12.5 63.87L49.65 63.87ZM52.58 47.27L51.89 51.14L15.42 47.27L52.58 47.27ZM55.41 30.76L54.73 34.63L18.35 30.76L55.41 30.76ZM56.88 22.51L56.19 26.38L19.81 22.51L56.88 22.51ZM51.11 55.53L50.43 59.4L13.96 55.53L51.11 55.53ZM58.34 14.25L57.65 18.12L21.27 14.25L58.34 14.25ZM53.95 39.02L53.26 42.89L16.89 39.02L53.95 39.02ZM142.79 22.51L164.63 22.51C171.77 22.51 175.86 25.26 176.92 30.76L200.5 30.76C199.81 32.25 199.32 33.4 199.03 34.2L177.08 31.88C177.15 32.51 177.19 33.17 177.19 33.86C177.19 35.55 177.03 37.27 176.7 39.02L197.49 39.02L196.71 42.63L176.39 40.45C176.07 41.82 175.65 43.2 175.13 44.61C174.77 45.56 174.35 46.44 173.87 47.27L195.85 47.27C195.62 49.05 195.48 50.26 195.42 50.89L173.07 48.5C171.78 50.29 170.15 51.75 168.16 52.86L169.02 55.53L195.34 55.53C195.34 56.45 195.45 57.65 195.68 59.14L169.28 56.32L171.72 63.87L197.14 63.87C197.83 65.25 198.57 66.31 199.38 67.05L171.81 64.13L173.06 68L156.98 68L153.71 54.76L151.65 54.76L149.33 68L134.88 68L142.79 22.51ZM160.94 40.39L161.45 37.38C161.45 37.33 161.48 37.04 161.54 36.52C161.54 35.55 160.02 35.06 156.98 35.06L155.09 35.06L153.71 42.97L156.46 42.97C159.1 42.97 160.59 42.11 160.94 40.39ZM132.73 63.87L132.04 67.74L95.58 63.87L132.73 63.87ZM135.65 47.27L134.96 51.14L98.5 47.27L135.65 47.27ZM137.11 39.02L136.43 42.89L99.96 39.02L137.11 39.02ZM138.58 30.76L137.89 34.63L101.42 30.76L138.58 30.76ZM139.95 22.51L139.35 26.38L102.89 22.51L139.95 22.51ZM134.19 55.53L133.5 59.4L97.04 55.53L134.19 55.53ZM223.11 21.65C226.13 21.65 228.73 21.94 230.91 22.51L267.23 22.51L266.63 26.38L231.37 22.64C233.44 23.24 235.1 24.11 236.36 25.26C237.9 26.63 238.99 28.47 239.63 30.76L265.86 30.76L265.17 34.63L239.91 31.95C240.18 33.28 240.31 34.75 240.31 36.35C240.31 37.18 240.27 38.07 240.2 39.02L264.39 39.02L263.71 42.89L240.08 40.38C239.92 41.89 239.69 43.53 239.37 45.3C239.25 45.97 239.13 46.63 239 47.27L262.93 47.27L262.24 51.14L238.7 48.64C238.12 51.19 237.42 53.48 236.6 55.53L261.47 55.53L260.78 59.4L236.07 56.78C234.87 59.44 233.45 61.63 231.8 63.36C231.63 63.53 231.46 63.7 231.29 63.87L260.01 63.87L259.32 67.74L230.37 64.67C226.76 67.58 221.56 69.03 214.77 69.03C208.7 69.03 204.37 67.86 201.79 65.51C199.21 63.1 197.92 59.4 197.92 54.41C197.92 51.83 198.23 48.79 198.86 45.3C200.29 37.04 202.79 31.05 206.34 27.32C209.9 23.54 215.49 21.65 223.11 21.65ZM212.19 55.96L217.27 55.96C218.93 55.96 220.16 55.76 220.96 55.36C221.82 54.96 222.39 54.07 222.68 52.69L225.95 34.72L220.71 34.72C219.1 34.72 217.84 34.92 216.92 35.32C216.06 35.72 215.54 36.58 215.37 37.9L212.19 55.96ZM178.05 22.51L207.98 22.51C206.6 23.31 205.42 24.25 204.45 25.34L178.05 22.51ZM300.51 68L288.82 68L279.96 50.97L279.62 50.97L276.61 68L262.16 68L270.07 22.51L281.77 22.51L290.71 39.45L291.23 39.45L292.71 30.87L291.66 30.76L292.73 30.76L294.13 22.62L293.12 22.51L330.18 22.51L329.58 26.38L308.23 24.11L307.06 30.76L328.81 30.76L328.12 34.63L306.78 32.36L305.61 39.02L337.06 39.02L336.38 42.89L305.5 39.61L304.16 47.27L335.6 47.27L334.91 51.14L304.05 47.86L302.7 55.53L334.14 55.53L333.45 59.4L302.6 56.13L301.24 63.87L332.68 63.87L331.99 67.74L301.13 64.46L300.51 68ZM365.51 30.76L385.48 30.76C384.79 32.25 384.31 33.4 384.02 34.2L365.24 32.21L364.67 35.41L355.38 35.41L354.75 39.02L382.47 39.02L381.7 42.63L354.63 39.72L353.32 47.27L380.84 47.27C380.61 49.05 380.46 50.26 380.41 50.89L353.19 47.98L351.88 55.53L380.32 55.53C380.32 56.45 380.44 57.65 380.67 59.14L351.79 56.06L349.71 68L334.57 68L340.25 35.41L330.7 35.41L333.02 22.51L392.96 22.51C391.59 23.31 390.41 24.25 389.44 25.34L366.92 22.93L365.51 30.76ZM408.1 21.65C411.12 21.65 413.72 21.94 415.9 22.51L452.48 22.51L451.79 26.38L416.21 22.59C418.34 23.2 420.05 24.08 421.34 25.26C422.88 26.63 423.98 28.47 424.62 30.76L451.01 30.76L450.33 34.63L424.9 31.92C425.17 33.26 425.3 34.74 425.3 36.35C425.3 37.18 425.26 38.07 425.19 39.02L449.55 39.02L448.86 42.89L425.07 40.36C424.91 41.87 424.67 43.52 424.35 45.3C424.23 45.97 424.11 46.63 423.98 47.27L448.18 47.27L447.49 51.14L423.69 48.61C423.11 51.17 422.4 53.48 421.58 55.53L446.71 55.53L446.03 59.4L421.06 56.75C419.87 59.42 418.44 61.63 416.79 63.36C416.62 63.53 416.45 63.7 416.28 63.87L445.25 63.87L444.56 67.74L415.39 64.64C411.78 67.57 406.57 69.03 399.76 69.03C393.68 69.03 389.35 67.86 386.77 65.51C384.19 63.1 382.9 59.4 382.9 54.41C382.9 51.83 383.22 48.79 383.85 45.3C385.28 37.04 387.78 31.05 391.33 27.32C394.88 23.54 400.47 21.65 408.1 21.65ZM397.18 55.96L402.25 55.96C403.92 55.96 405.15 55.76 405.95 55.36C406.81 54.96 407.38 54.07 407.67 52.69L410.94 34.72L405.69 34.72C404.08 34.72 402.82 34.92 401.91 35.32C401.05 35.72 400.53 36.58 400.36 37.9L397.18 55.96ZM354.35 63.87L382.13 63.87C382.82 65.25 383.56 66.31 384.36 67.05L354.35 63.87ZM476.38 55.01L465.72 55.01L463.48 68L447.14 68L456.6 14.25L482.4 14.25C492.15 14.25 497.02 18.78 497.02 27.84C497.02 32.14 496.42 36.04 495.22 39.53C494.01 42.97 492.67 45.72 491.18 47.79C489.75 49.8 487.74 51.52 485.16 52.95C482.63 54.32 479.71 55.01 476.38 55.01ZM468.13 41.25L471.91 41.25C473.86 41.25 475.33 41.05 476.3 40.65C477.33 40.19 477.99 39.19 478.28 37.64C479.02 33.4 479.39 31.08 479.39 30.68C479.39 29.59 478.96 28.87 478.1 28.53C477.24 28.18 475.95 28.01 474.23 28.01L470.45 28.01L468.13 41.25ZM453.94 14.25L453.25 18.12L416.87 14.25L453.94 14.25Z" />
 </svg>