<svg xmlns="http://www.w3.org/2000/svg" viewBox="0 0 1500 1500" width="1200" height="300" id="mozo">
   <style>
     tspan { white-space:pre }
     .shp0 { fill: #ff8646 } 
     .shp1 { fill: #ff6337 } 
     .shp2 { fill: #ffa754 } 
     .shp3 { fill: #85453d } 
     .shp4 { fill: #7dd9ff } 
     .shp5 { fill: #cffffa } 
     .shp6 { fill: #a4e6fe } 
     .shp7 { fill: #333333 } 
     .shp8 { fill: #595857 } 
     .shp9 { fill: #f37324 } 
     .shp10 { fill: #ffd0a3 } 
     .shp11 { fill: #ffe8d1 } 
     .shp12 { fill: #828282 } 
     .shp13 { fill: #a1a1a1 } 
     .shp14 { fill: #ea2820 } 
     .shp15 { fill: #ff443e } 
     .shp16 { fill: #b9d171 } 
     .shp17 { fill: #94806d } 
     .shp18 { fill: #fff0d3 } 
     .shp19 { fill: #9db55f } 
   </style>
   <path id="Layer" class="shp0" d="M113.02 93.67C92 93.67 74.96 110.71 74.96 131.73L74.96 139.34L120.63 139.34L120.63 131.73C120.63 110.71 117.22 93.67 113.02 93.67L113.02 93.67Z" />
   <path id="Layer" class="shp1" d="M113.02 93.67L92.72 116.5L120.63 139.34L151.07 139.34L151.07 131.73C151.07 110.71 134.04 93.67 113.02 93.67Z" />
   <path id="Layer" class="shp2" d="M74.96 139.34L74.96 154.56C74.96 162.93 81.81 169.79 90.18 169.79L120.63 169.79L120.63 119.04L74.96 139.34Z" />
   <path id="Layer" class="shp0" d="M120.63 169.79L135.85 169.79C144.22 169.79 151.07 162.93 151.07 154.56L151.07 139.34L100.33 119.04L120.63 169.79Z" />
   <path id="Layer" class="shp0" d="M113.02 93.67C92 93.67 74.96 110.71 74.96 131.73L74.96 139.34L120.63 139.34L120.63 131.73C120.63 110.71 117.22 93.67 113.02 93.67L113.02 93.67Z" />
   <path id="Layer" class="shp3" d="M153.61 146.95L72.42 146.95C68.22 146.95 64.81 143.54 64.81 139.34C64.81 135.13 68.22 131.73 72.42 131.73L153.61 131.73C157.82 131.73 161.22 135.13 161.22 139.34C161.22 143.54 157.82 146.95 153.61 146.95L153.61 146.95Z" />
   <path id="Layer" class="shp4" d="M179.89 197.84L58.11 197.84C53.91 197.84 50.5 194.43 50.5 190.23C50.5 186.02 53.91 182.62 58.11 182.62L179.89 182.62C184.1 182.62 187.51 186.02 187.51 190.23C187.51 194.43 184.1 197.84 179.89 197.84Z" />
   <path id="Layer" class="shp4" d="M179.89 197.84L58.11 197.84C53.91 197.84 50.5 194.43 50.5 190.23C50.5 186.02 53.91 182.62 58.11 182.62L179.89 182.62C184.1 182.62 187.51 186.02 187.51 190.23C187.51 194.43 184.1 197.84 179.89 197.84Z" />
   <path id="Layer" class="shp5" d="M107.72 202.97L92.5 202.97C92.5 190.38 102.74 180.14 115.34 180.14L252.34 180.14L252.34 195.36L115.34 195.36C111.14 195.36 107.72 198.78 107.72 202.97L107.72 202.97Z" />
   <path id="Layer" class="shp6" d="M259.95 167.45L237.12 213.63L252.34 259.8L292.94 259.8L282.79 167.45L259.95 167.45Z" />
   <path id="Layer" class="shp5" d="M221.89 167.45L211.75 259.8L252.34 259.8L252.34 177.6L244.73 167.45L221.89 167.45Z" />
   <path id="Layer" class="shp7" d="M244.73 167.45L259.95 167.45L259.95 268.94L244.73 268.94L244.73 167.45Z" />
   <path id="piernaIzquierda" class="shp8" d="M214.29 289.24L214.29 488.75L189.04 497.16C185.05 498.5 182.9 502.8 184.23 506.79C185.56 510.78 189.87 512.94 193.86 511.61L224.3 501.46C227.41 500.42 229.51 497.52 229.51 494.24L229.51 289.24L214.29 289.24Z" />
   <path id="piernaDerecha" class="shp7" d="M290.4 289.24L290.4 488.75L315.64 497.16C319.63 498.5 321.78 502.8 320.45 506.79C319.13 510.78 314.81 512.94 310.82 511.61L280.38 501.46C277.27 500.42 275.18 497.52 275.18 494.24L275.18 289.24L290.4 289.24Z" />
   <path id="Layer" class="shp9" d="M287.38 31.16C290.36 25.42 289.45 18.19 284.63 13.38C279.82 8.57 272.59 7.65 266.86 10.63C264.91 4.47 259.15 0 252.34 0C245.54 0 239.78 4.47 237.83 10.63C232.09 7.65 224.86 8.56 220.05 13.38C215.23 18.19 214.32 25.42 217.3 31.16C211.14 33.11 206.67 38.86 206.67 45.67L206.67 91.34L298.01 91.34C298.01 91.34 298.01 54.07 298.01 45.67C298.01 38.86 293.54 33.11 287.38 31.16Z" />
   <path id="Layer" class="shp10" d="M252.34 45.67L252.34 137.01C277.56 137.01 298.01 116.56 298.01 91.34C298.01 66.12 277.56 45.67 252.34 45.67Z" />
   <path id="Layer" class="shp11" d="M267.56 91.34C267.56 66.12 260.75 45.67 252.34 45.67C227.12 45.67 206.67 66.12 206.67 91.34C206.67 116.56 227.12 137.01 252.34 137.01C260.75 137.01 267.56 116.56 267.56 91.34Z" />
   <path id="Layer" class="shp6" d="M298.01 289.23L237.12 258.78L267.56 380.57L298.01 380.57L298.01 289.23Z" />
   <path id="Layer" class="shp5" d="M206.67 289.23L206.67 380.57L267.56 380.57L267.56 258.78L206.67 289.23Z" />
   <path id="Layer" class="shp12" d="M292.94 167.45L282.79 167.45C282.79 202.15 270.54 232.43 252.34 248.64L232.04 248.64L252.34 289.24L298.01 289.24L298.01 243.57C306.16 237.45 311.82 228.2 313.23 217.62L313.23 187.75C313.23 176.54 304.14 167.45 292.94 167.45L292.94 167.45Z" />
   <path id="Layer" class="shp13" d="M221.89 167.45L211.75 167.45C200.54 167.45 191.45 176.54 191.45 187.75L191.45 217.62C192.86 228.2 198.52 237.45 206.67 243.57L206.67 289.24L252.34 289.24L252.34 248.64C234.14 232.43 221.89 202.15 221.89 167.45L221.89 167.45Z" />
   <path id="Layer" class="shp14" d="M389.35 167.45L363.98 228.34L419.79 197.9L419.79 167.45L389.35 167.45Z" />
   <path id="Layer" class="shp15" d="M389.35 167.45L343.68 167.45L343.68 197.9L389.35 218.2L389.35 167.45Z" />
   <path id="Layer" class="shp6" d="M419.79 197.9L389.35 197.9L363.98 235.96L389.35 274.02L419.79 274.02L419.79 197.9Z" />
   <path id="Layer" class="shp5" d="M343.68 197.9L389.35 197.9L389.35 274.02L343.68 274.02L343.68 197.9Z" />
   <path id="Layer" class="shp16" d="M157.06 100.95L157.06 68.45C157.06 64.24 153.65 60.84 149.45 60.84C145.25 60.84 141.84 64.24 141.84 68.45L141.84 100.95C137.29 103.58 134.23 108.48 134.23 114.11L134.23 144.56L164.67 144.56L164.67 114.11C164.67 108.48 161.61 103.58 157.06 100.95Z" />
   <path id="Layer" class="shp16" d="M157.06 100.95L157.06 68.45C157.06 64.24 153.65 60.84 149.45 60.84C145.25 60.84 141.84 64.24 141.84 68.45L141.84 100.95C137.29 103.58 134.23 108.48 134.23 114.11L134.23 144.56L164.67 144.56L164.67 114.11C164.67 108.48 161.61 103.58 157.06 100.95Z" />
   <path id="Layer" class="shp17" d="M73.34 159.79L103.78 159.79L103.78 190.23L73.34 190.23L73.34 159.79Z" />
   <path id="Layer" class="shp18" d="M73.34 129.34L73.34 159.79L88.56 175.01L103.78 159.79L103.78 129.34L73.34 129.34Z" />
   <path id="Layer" class="shp19" d="M149.45 109.04L134.23 144.56L134.23 190.23L164.67 190.23L164.67 144.56L149.45 109.04Z" />
   <path id="Layer" class="shp5" d="M130.56 225.81L115.34 225.81C102.74 225.81 92.5 215.56 92.5 202.97C92.5 198.77 95.91 195.36 100.11 195.36C104.32 195.36 107.72 198.77 107.72 202.97C107.72 207.17 111.14 210.59 115.34 210.59L130.56 210.59C134.76 210.59 138.17 213.99 138.17 218.2C138.17 222.4 134.76 225.81 130.56 225.81Z" />
   <path id="Layer" class="shp4" d="M179.89 197.84L58.11 197.84C53.91 197.84 50.5 194.43 50.5 190.23C50.5 186.02 53.91 182.62 58.11 182.62L179.89 182.62C184.1 182.62 187.51 186.02 187.51 190.23C187.51 194.43 184.1 197.84 179.89 197.84Z" />
 </svg>